#!OML:ASF C:\Vicon Data\Big\jianyuan-11\jianyuan\Session 1\male.ASF
:FULLY-SPECIFIED
:DEGREES
251
root -16.854205 16.548016 -7.075304 -18.157393 -43.944699 17.247878
lowerback 1.537735 0.619181 -6.549108 
upperback 6.173596 1.186428 -0.789024 
thorax 5.468042 0.376396 2.887059 
lowerneck -13.203436 -5.984490 -9.845059 
upperneck 24.831951 -7.629825 7.958791 
head 10.881015 -3.298463 3.540136 
rclavicle 0.000000 0.000000 
rhumerus -48.434534 -32.652704 -63.796863 
rradius 36.632704 
rwrist -1.152027 
rhand -19.067074 -1.119252 
rfingers 0.000000 
rthumb 7.240426 -30.975364 
lclavicle 0.000000 0.000000 
lhumerus -11.660669 0.890445 92.629375 
lradius 53.673244 
lwrist -3.845876 
lhand -14.226835 -9.532625 
lfingers 0.000000 
lthumb 11.910387 20.108553 
rfemur -29.416815 5.683365 6.951041 
rtibia 30.821365 
rfoot -8.722674 -12.260864 
rtoes 10.287309 
lfemur 23.515976 0.298875 -31.720195 
ltibia 0.000000 
lfoot -11.504440 7.862406 
ltoes -8.712439 
252
root -16.910569 16.544005 -7.033455 -18.228129 -43.920560 17.281086
lowerback 1.508452 0.592985 -6.570984 
upperback 6.166244 1.155177 -0.820671 
thorax 5.480547 0.360408 2.865745 
lowerneck -13.182405 -5.980732 -9.869106 
upperneck 24.890776 -7.632086 8.003261 
head 10.902006 -3.295395 3.562192 
rclavicle 0.000000 0.000000 
rhumerus -48.467737 -32.687080 -63.775741 
rradius 36.643968 
rwrist -1.181699 
rhand -19.079097 -1.185721 
rfingers 0.000000 
rthumb 7.228823 -31.042241 
lclavicle 0.000000 0.000000 
lhumerus -11.601918 0.675398 92.591845 
lradius 53.901242 
lwrist -3.699099 
lhand -14.261746 -9.567748 
lfingers 0.000000 
lthumb 11.876741 20.075364 
rfemur -29.234018 5.675448 6.918413 
rtibia 30.656726 
rfoot -8.999011 -12.437610 
rtoes 10.552231 
lfemur 23.805401 0.326602 -31.719934 
ltibia 0.000000 
lfoot -11.347095 8.030376 
ltoes -9.284637 
253
root -16.968290 16.539528 -6.990774 -18.214601 -43.906477 17.210526
lowerback 1.467375 0.546641 -6.511338 
upperback 6.152273 1.093651 -0.826672 
thorax 5.495321 0.332131 2.824922 
lowerneck -13.130074 -5.962526 -9.981008 
upperneck 24.929659 -7.614792 8.125529 
head 10.914720 -3.283691 3.630895 
rclavicle 0.000000 0.000000 
rhumerus -48.456640 -32.674192 -63.754536 
rradius 36.606405 
rwrist -1.193088 
rhand -19.105002 -1.176314 
rfingers 0.000000 
rthumb 7.203805 -31.033725 
lclavicle 0.000000 0.000000 
lhumerus -11.615584 0.425071 92.541108 
lradius 54.232822 
lwrist -3.537149 
lhand -14.295257 -9.384673 
lfingers 0.000000 
lthumb 11.844405 20.260315 
rfemur -29.047086 5.654207 6.981615 
rtibia 30.517557 
rfoot -9.305236 -12.652493 
rtoes 10.822535 
lfemur 24.097753 0.337829 -31.640647 
ltibia 0.000000 
lfoot -11.142416 8.233899 
ltoes -10.199326 
254
root -17.032622 16.534225 -6.945650 -18.233906 -43.943297 17.165678
lowerback 1.347038 0.572584 -6.494923 
upperback 6.163541 1.138022 -0.834151 
thorax 5.572038 0.352260 2.811238 
lowerneck -13.093840 -5.995607 -9.908666 
upperneck 24.997708 -7.666808 8.069927 
head 10.932910 -3.305372 3.592879 
rclavicle 0.000000 0.000000 
rhumerus -48.618808 -32.881873 -63.631400 
rradius 36.665984 
rwrist -1.136241 
rhand -19.108389 -1.195557 
rfingers 0.000000 
rthumb 7.200491 -31.053093 
lclavicle 0.000000 0.000000 
lhumerus -11.635615 -0.017155 92.517615 
lradius 54.573360 
lwrist -3.347342 
lhand -14.252101 -9.257465 
lfingers 0.000000 
lthumb 11.886015 20.385145 
rfemur -28.840289 5.699661 7.059952 
rtibia 30.407015 
rfoot -9.419401 -12.887128 
rtoes 10.627522 
lfemur 24.412810 0.399801 -31.545718 
ltibia 0.000000 
lfoot -11.090938 8.314857 
ltoes -9.010302 
